#!OML:ASF F:\VICON\USERDATA\INSTALL\rory3\rory3.ASF
:FULLY-SPECIFIED
:DEGREES
276
root 4.43125 17.0758 2.92542 18.0194 -6.3852 -8.20858
lowerback -3.54265 0.0664474 5.97203
upperback -4.04767 -0.00656244 1.47013
thorax -2.19537 -0.139254 -1.82829
lowerneck -11.5504 1.63435 -0.770718
upperneck 38.3272 1.47583 2.83772
head 15.3192 0.843249 1.56342
rclavicle 1.04362e-015 -3.57812e-014
rhumerus -12.9188 9.08744 -18.5661
rradius 92.5829
rwrist -21.0515
rhand -6.16424 -35.6645
rfingers 7.12502
rthumb 19.6745 -64.6889
lclavicle 1.04362e-015 -3.57812e-014
lhumerus 10.0649 1.43373 2.32346
lradius 28.8883
lwrist 16.7439
lhand -23.921 -27.3178
lfingers 7.12502
lthumb 2.55367 2.64662
rfemur -21.0726 5.55617 5.58918
rtibia 43.063
rfoot 20.3428 -18.2799
rtoes -17.4224
lfemur -36.2921 -1.79863 -19.4192
ltibia 41.1727
lfoot -20.1315 6.41031
ltoes 14.1427
277
root 4.43421 17.0738 2.93165 18.0054 -6.40878 -8.16539
lowerback -3.60081 0.054615 5.92383
upperback -4.01659 -0.0277142 1.44531
thorax -2.13166 -0.146743 -1.8276
lowerneck -11.441 1.64657 -0.877538
upperneck 38.2417 1.49799 2.90821
head 15.2473 0.847009 1.61153
rclavicle -1.34677e-014 6.75868e-015
rhumerus -13.0908 9.34325 -18.8314
rradius 92.3654
rwrist -21.0219
rhand -6.71058 -36.7743
rfingers 7.12502
rthumb 19.1492 -65.8516
lclavicle -1.34677e-014 6.75868e-015
lhumerus 9.76428 0.95125 2.32924
lradius 29.0074
lwrist 17.1481
lhand -24.1431 -27.369
lfingers 7.12502
lthumb 2.33912 2.59794
rfemur -21.3242 5.65063 5.49821
rtibia 43.4196
rfoot 20.6457 -18.2164
rtoes -17.4666
lfemur -36.2736 -1.78468 -19.4874
ltibia 41.2014
lfoot -20.0586 6.46986
ltoes 13.9826
278
root 4.43626 17.0704 2.93555 17.9816 -6.47206 -8.17259
lowerback -3.61966 0.0611324 5.90555
upperback -4.03292 -0.0195052 1.44277
thorax -2.13729 -0.142696 -1.81986
lowerneck -11.2657 1.6387 -0.849417
upperneck 38.2344 1.53978 2.7423
head 15.2034 0.845644 1.5395
rclavicle 1.43125e-014 -4.49253e-014
rhumerus -13.1946 9.63143 -19.0715
rradius 92.0665
rwrist -21.0199
rhand -6.96415 -37.1416
rfingers 7.12502
rthumb 18.9053 -66.2429
lclavicle 1.43125e-014 -4.49253e-014
lhumerus 9.45996 0.442914 2.36679
lradius 29.1415
lwrist 17.4654
lhand -23.9211 -27.2305
lfingers 7.12502
lthumb 2.5536 2.73397
rfemur -21.576 5.75294 5.4582
rtibia 43.764
rfoot 21.1612 -17.957
rtoes -16.8537
lfemur -36.2326 -1.72743 -19.5135
ltibia 41.2184
lfoot -20.0357 6.46322
ltoes 14.0721
279
root 4.44071 17.0735 2.94066 17.954 -6.5381 -8.36221
lowerback -3.54776 0.080277 6.04591
upperback -4.11154 0.0132556 1.50395
thorax -2.25808 -0.133737 -1.83399
lowerneck -10.924 1.59293 -0.898462
upperneck 38.2037 1.51139 2.65937
head 15.1086 0.814299 1.50214
rclavicle 1.60519e-014 -8.34896e-015
rhumerus -13.383 10 -19.3184
rradius 91.8205
rwrist -21.0086
rhand -6.95415 -37.0887
rfingers 7.12502
rthumb 18.9149 -66.189
lclavicle 1.60519e-014 -8.34896e-015
lhumerus 9.1917 0.279584 2.57435
lradius 29.1404
lwrist 17.2912
lhand -23.2284 -27.4337
lfingers 7.12502
lthumb 3.2225 2.52174
rfemur -21.8402 5.87331 5.61589
rtibia 44.1037
rfoot 22.0248 -17.1655
rtoes -16.6802
lfemur -36.1418 -1.64765 -19.3515
ltibia 41.2146
lfoot -20.0872 6.46594
ltoes 14.2946
280
root 4.44543 17.0779 2.94435 17.8528 -6.53387 -8.50857
lowerback -3.34126 0.0752179 6.15728
upperback -4.16467 0.0242389 1.54491
thorax -2.42934 -0.136134 -1.85309
lowerneck -10.8345 1.54246 -0.924766
upperneck 38.2686 1.44276 2.65066
head 15.1212 0.778896 1.49268
rclavicle 8.64713e-015 1.31198e-014
rhumerus -13.7294 10.2985 -19.5714
rradius 91.6717
rwrist -20.8265
rhand -6.76484 -37.3739
rfingers 7.12502
rthumb 19.097 -66.4564
lclavicle 8.64713e-015 1.31198e-014
lhumerus 9.00975 0.30314 2.86746
lradius 29.087
lwrist 16.992
lhand -23.4096 -27.7756
lfingers 7.12502
lthumb 3.04751 2.18237
rfemur -22.0125 5.94313 5.77323
rtibia 44.4613
rfoot 22.5868 -16.5866
rtoes -16.7582
lfemur -35.993 -1.65798 -19.1994
ltibia 41.1904
lfoot -20.1623 6.52464
ltoes 14.2762
281
root 4.44901 17.0765 2.94493 17.7497 -6.60517 -8.39411
lowerback -3.15601 0.0574502 5.98486
upperback -4.15638 0.0166857 1.49698
thorax -2.52376 -0.138136 -1.80638
lowerneck -11.0718 1.5273 -0.743969
upperneck 38.416 1.44038 2.4645
head 15.2558 0.777543 1.38861
rclavicle -1.62506e-014 -1.03368e-014
rhumerus -14.0279 10.5017 -19.8279
rradius 91.5552
rwrist -20.5711
rhand -6.8902 -37.4124
rfingers 7.12502
rthumb 18.9764 -66.5067
lclavicle -1.62506e-014 -1.03368e-014
lhumerus 8.96953 0.448029 3.11359
lradius 28.8312
lwrist 16.6353
lhand -24.0565 -27.737
lfingers 7.12502
lthumb 2.42275 2.22898
rfemur -22.2342 5.95291 5.62362
rtibia 44.8506
rfoot 22.552 -17.2525
rtoes -14.7418
lfemur -35.867 -1.70881 -19.3372
ltibia 41.1564
lfoot -20.206 6.62824
ltoes 14.1454
